<?xml version="1.0" encoding="UTF-8"?>
<!DOCTYPE svg PUBLIC "-//W3C//DTD SVG 1.1//EN" "http://www.w3.org/Graphics/SVG/1.1/DTD/svg11.dtd">
<svg xmlns="http://www.w3.org/2000/svg" version="1.1" width="256px" height="256px" style="shape-rendering:geometricPrecision; text-rendering:geometricPrecision; image-rendering:optimizeQuality; fill-rule:evenodd; clip-rule:evenodd" xmlns:xlink="http://www.w3.org/1999/xlink">
<g><path style="opacity:1" fill="#824042" d="M 135.5,32.5 C 133.285,33.2679 130.952,33.9346 128.5,34.5C 126.304,34.4348 124.304,33.7681 122.5,32.5C 126.984,31.1889 131.317,31.1889 135.5,32.5 Z"/></g>
<g><path style="opacity:1" fill="#aa4743" d="M 135.5,32.5 C 137.735,32.2053 139.735,32.5386 141.5,33.5C 142.609,34.29 143.942,34.79 145.5,35C 144.906,35.4643 144.239,35.631 143.5,35.5C 141.114,35.2587 139.114,35.9254 137.5,37.5C 134.215,37.0719 131.215,36.0719 128.5,34.5C 130.952,33.9346 133.285,33.2679 135.5,32.5 Z"/></g>
<g><path style="opacity:0.984" fill="#a45d4e" d="M 105.5,37.5 C 103.167,36.8333 100.833,36.1667 98.5,35.5C 98.1667,34.5 97.5,33.8333 96.5,33.5C 95.596,32.791 95.2627,31.791 95.5,30.5C 98.5158,30.8406 101.182,32.0073 103.5,34C 104.823,34.8159 105.489,35.9826 105.5,37.5 Z"/></g>
<g><path style="opacity:0.929" fill="#7d1c0e" d="M 98.5,35.5 C 100.833,36.1667 103.167,36.8333 105.5,37.5C 102.12,38.6674 98.7868,38.1674 95.5,36C 96.448,35.5172 97.448,35.3505 98.5,35.5 Z"/></g>
<g><path style="opacity:0.388" fill="#f6bc66" d="M 85.5,36.5 C 85.8333,37.1667 86.1667,37.8333 86.5,38.5C 86.7329,40.0618 87.3995,41.3951 88.5,42.5C 88.5,43.1667 88.1667,43.5 87.5,43.5C 85.6736,41.8525 84.3403,39.8525 83.5,37.5C 83.4088,35.3023 84.0755,34.9689 85.5,36.5 Z"/></g>
<g><path style="opacity:1" fill="#e9741b" d="M 89.5,40.5 C 90.1667,40.5 90.8333,40.5 91.5,40.5C 96.0099,42.8441 99.3433,46.3441 101.5,51C 106.408,50.5965 110.408,52.2632 113.5,56C 112.095,57.2692 110.429,57.7692 108.5,57.5C 109.598,56.603 109.598,55.7697 108.5,55C 103.173,54.1368 97.8393,53.3035 92.5,52.5C 94.5167,51.7809 96.1834,50.6143 97.5,49C 94.6511,46.3184 91.9844,43.485 89.5,40.5 Z"/></g>
<g><path style="opacity:1" fill="#ee651f" d="M 91.5,40.5 C 98.8668,41.3388 106.2,42.5054 113.5,44C 117.479,48.2647 122.479,50.598 128.5,51C 123.5,51.3333 118.5,51.6667 113.5,52C 114.858,53.8316 115.192,55.6649 114.5,57.5C 107.652,59.9246 100.652,61.7579 93.5,63C 88.626,64.2617 84.626,66.7617 81.5,70.5C 78.9097,71.2524 76.4097,72.2524 74,73.5C 72.2127,72.4368 70.3793,71.9368 68.5,72C 66.2507,73.7455 64.5841,75.9121 63.5,78.5C 61.736,80.2776 59.736,81.6109 57.5,82.5C 58.1667,81.5 58.8333,80.5 59.5,79.5C 63.2688,75.2288 67.2688,71.0621 71.5,67C 72.4835,66.4092 73.1501,66.7425 73.5,68C 72.548,69.3004 72.548,70.467 73.5,71.5C 77.4005,69.3919 81.0672,67.0585 84.5,64.5C 86.5529,64.5979 88.2196,63.9313 89.5,62.5C 95.7196,60.3619 102.053,58.6952 108.5,57.5C 110.429,57.7692 112.095,57.2692 113.5,56C 110.408,52.2632 106.408,50.5965 101.5,51C 99.3433,46.3441 96.0099,42.8441 91.5,40.5 Z"/></g>
<g><path style="opacity:0.875" fill="#ca623f" d="M 96.5,33.5 C 97.5,33.8333 98.1667,34.5 98.5,35.5C 97.448,35.3505 96.448,35.5172 95.5,36C 98.7868,38.1674 102.12,38.6674 105.5,37.5C 108.127,38.1049 110.793,38.6049 113.5,39C 116.328,41.2481 119.328,43.2481 122.5,45C 128.541,46.5753 134.541,48.242 140.5,50C 142.93,52.3046 143.93,55.1379 143.5,58.5C 141.757,56.0625 139.757,53.7291 137.5,51.5C 131.545,50.3896 125.545,48.8896 119.5,47C 118.122,45.2866 116.455,43.9533 114.5,43C 105.388,40.9716 96.3883,38.4716 87.5,35.5C 86.5836,35.5427 85.9169,35.8761 85.5,36.5C 84.0755,34.9689 83.4088,35.3023 83.5,37.5C 82.1359,35.78 81.1359,33.78 80.5,31.5C 80.8076,30.6919 81.3076,30.0253 82,29.5C 86.606,32.6054 91.4394,33.9387 96.5,33.5 Z"/></g>
<g><path style="opacity:1" fill="#f7cd37" d="M 88.5,42.5 C 90.3636,43.8336 91.5302,45.5002 92,47.5C 87.9805,49.2579 83.8138,50.5913 79.5,51.5C 81.9422,49.7742 84.6089,48.2742 87.5,47C 86.552,46.5172 85.552,46.3505 84.5,46.5C 85.6935,45.7281 86.6935,44.7281 87.5,43.5C 88.1667,43.5 88.5,43.1667 88.5,42.5 Z"/></g>
<g><path style="opacity:1" fill="#cb3a37" d="M 143.5,35.5 C 144.833,36.1667 146.167,36.8333 147.5,37.5C 146.325,37.281 145.325,37.6143 144.5,38.5C 147.673,40.5872 151.006,42.4205 154.5,44C 157.94,46.0421 160.94,48.5421 163.5,51.5C 162.833,51.5 162.167,51.5 161.5,51.5C 154.088,45.7953 146.088,41.1286 137.5,37.5C 139.114,35.9254 141.114,35.2587 143.5,35.5 Z"/></g>
<g><path style="opacity:1" fill="#da6544" d="M 141.5,33.5 C 167.112,37.9664 187.112,50.9664 201.5,72.5C 201.5,73.1667 201.5,73.8333 201.5,74.5C 199.605,73.027 197.939,71.3603 196.5,69.5C 187.452,57.1207 175.786,48.1207 161.5,42.5C 156.833,40.8331 152.166,39.1664 147.5,37.5C 146.167,36.8333 144.833,36.1667 143.5,35.5C 144.239,35.631 144.906,35.4643 145.5,35C 143.942,34.79 142.609,34.29 141.5,33.5 Z"/></g>
<g><path style="opacity:0.502" fill="#d7a446" d="M 84.5,46.5 C 85.552,46.3505 86.552,46.5172 87.5,47C 84.6089,48.2742 81.9422,49.7742 79.5,51.5C 77.8113,52.9307 75.8113,53.7641 73.5,54C 72.6195,54.7083 71.9528,55.5416 71.5,56.5C 71.1667,56.5 70.8333,56.5 70.5,56.5C 70.1583,55.6618 69.4916,55.3284 68.5,55.5C 73.1773,51.4905 78.5106,48.4905 84.5,46.5 Z"/></g>
<g><path style="opacity:1" fill="#ec5a26" d="M 137.5,51.5 C 140.781,56.5854 139.781,60.752 134.5,64C 127.821,64.5466 121.155,65.2132 114.5,66C 115.737,66.2321 116.737,66.7321 117.5,67.5C 116.167,67.5 114.833,67.5 113.5,67.5C 111.034,66.3659 108.367,66.1993 105.5,67C 92.0791,70.0751 80.0791,75.9084 69.5,84.5C 72.0423,80.0406 75.709,76.7073 80.5,74.5C 79.5672,73.0153 79.9005,71.6819 81.5,70.5C 84.626,66.7617 88.626,64.2617 93.5,63C 100.652,61.7579 107.652,59.9246 114.5,57.5C 115.192,55.6649 114.858,53.8316 113.5,52C 118.5,51.6667 123.5,51.3333 128.5,51C 122.479,50.598 117.479,48.2647 113.5,44C 106.2,42.5054 98.8668,41.3388 91.5,40.5C 90.8333,40.5 90.1667,40.5 89.5,40.5C 88.5,39.8333 87.5,39.1667 86.5,38.5C 86.1667,37.8333 85.8333,37.1667 85.5,36.5C 85.9169,35.8761 86.5836,35.5427 87.5,35.5C 96.3883,38.4716 105.388,40.9716 114.5,43C 116.455,43.9533 118.122,45.2866 119.5,47C 125.545,48.8896 131.545,50.3896 137.5,51.5 Z"/></g>
<g><path style="opacity:1" fill="#f69720" d="M 89.5,62.5 C 88.2196,63.9313 86.5529,64.5979 84.5,64.5C 82.396,64.7989 80.396,64.4656 78.5,63.5C 75.7508,60.3915 72.4175,59.3915 68.5,60.5C 67.537,60.0302 67.537,59.3635 68.5,58.5C 68.8333,57.5 69.5,56.8333 70.5,56.5C 70.8333,56.5 71.1667,56.5 71.5,56.5C 74.7045,55.0403 78.0378,54.5403 81.5,55C 82.435,57.3806 82.7683,59.8806 82.5,62.5C 84.8333,62.5 87.1667,62.5 89.5,62.5 Z"/></g>
<g><path style="opacity:1" fill="#eb3b23" d="M 147.5,37.5 C 152.166,39.1664 156.833,40.8331 161.5,42.5C 166.604,46.7484 171.937,50.9151 177.5,55C 180.586,58.7166 183.419,62.5499 186,66.5C 188.928,67.7598 190.761,69.9265 191.5,73C 189.845,76.1615 187.512,76.9948 184.5,75.5C 181.022,70.5665 177.522,65.5665 174,60.5C 170.902,56.8926 167.402,53.8926 163.5,51.5C 160.94,48.5421 157.94,46.0421 154.5,44C 151.006,42.4205 147.673,40.5872 144.5,38.5C 145.325,37.6143 146.325,37.281 147.5,37.5 Z"/></g>
<g><path style="opacity:1" fill="#faaf26" d="M 86.5,38.5 C 87.5,39.1667 88.5,39.8333 89.5,40.5C 91.9844,43.485 94.6511,46.3184 97.5,49C 96.1834,50.6143 94.5167,51.7809 92.5,52.5C 97.8393,53.3035 103.173,54.1368 108.5,55C 109.598,55.7697 109.598,56.603 108.5,57.5C 102.053,58.6952 95.7196,60.3619 89.5,62.5C 87.1667,62.5 84.8333,62.5 82.5,62.5C 82.7683,59.8806 82.435,57.3806 81.5,55C 78.0378,54.5403 74.7045,55.0403 71.5,56.5C 71.9528,55.5416 72.6195,54.7083 73.5,54C 75.8113,53.7641 77.8113,52.9307 79.5,51.5C 83.8138,50.5913 87.9805,49.2579 92,47.5C 91.5302,45.5002 90.3636,43.8336 88.5,42.5C 87.3995,41.3951 86.7329,40.0618 86.5,38.5 Z"/></g>
<g><path style="opacity:0.746" fill="#df6740" d="M 137.5,51.5 C 139.757,53.7291 141.757,56.0625 143.5,58.5C 136.984,67.3246 128.317,70.3246 117.5,67.5C 116.737,66.7321 115.737,66.2321 114.5,66C 121.155,65.2132 127.821,64.5466 134.5,64C 139.781,60.752 140.781,56.5854 137.5,51.5 Z"/></g>
<g><path style="opacity:0.843" fill="#d18241" d="M 68.5,55.5 C 69.4916,55.3284 70.1583,55.6618 70.5,56.5C 69.5,56.8333 68.8333,57.5 68.5,58.5C 64.2294,61.1009 60.5628,64.4342 57.5,68.5C 55.5831,69.9093 53.7498,71.576 52,73.5C 51.5357,72.9056 51.369,72.2389 51.5,71.5C 55.9012,64.7638 61.5678,59.4305 68.5,55.5 Z"/></g>
<g><path style="opacity:1" fill="#f48523" d="M 68.5,58.5 C 67.537,59.3635 67.537,60.0302 68.5,60.5C 72.4175,59.3915 75.7508,60.3915 78.5,63.5C 80.396,64.4656 82.396,64.7989 84.5,64.5C 81.0672,67.0585 77.4005,69.3919 73.5,71.5C 72.548,70.467 72.548,69.3004 73.5,68C 73.1501,66.7425 72.4835,66.4092 71.5,67C 67.2688,71.0621 63.2688,75.2288 59.5,79.5C 57.0181,77.4973 56.0181,74.8306 56.5,71.5C 56.5569,70.391 56.8902,69.391 57.5,68.5C 60.5628,64.4342 64.2294,61.1009 68.5,58.5 Z"/></g>
<g><path style="opacity:1" fill="#ed5324" d="M 81.5,70.5 C 79.9005,71.6819 79.5672,73.0153 80.5,74.5C 75.709,76.7073 72.0423,80.0406 69.5,84.5C 65.8333,87.8333 62.1667,91.1667 58.5,94.5C 60.2905,92.091 59.7905,90.4243 57,89.5C 54.8462,90.3204 53.3462,91.8204 52.5,94C 51.552,94.4828 50.552,94.6495 49.5,94.5C 49.6463,96.9424 48.813,97.6091 47,96.5C 44.6799,100.476 42.0133,104.143 39,107.5C 35.1175,121.232 33.6175,135.232 34.5,149.5C 33.4625,148.07 32.7959,146.403 32.5,144.5C 32.3337,137.492 32.5004,130.492 33,123.5C 34.2755,118.176 35.4422,112.843 36.5,107.5C 40.0705,103.374 42.9038,98.7068 45,93.5C 46.7839,90.9974 48.4506,90.9974 50,93.5C 51.4307,91.6365 52.5974,89.6365 53.5,87.5C 54.8333,85.8333 56.1667,84.1667 57.5,82.5C 59.736,81.6109 61.736,80.2776 63.5,78.5C 64.5841,75.9121 66.2507,73.7455 68.5,72C 70.3793,71.9368 72.2127,72.4368 74,73.5C 76.4097,72.2524 78.9097,71.2524 81.5,70.5 Z"/></g>
<g><path style="opacity:1" fill="#f16726" d="M 196.5,69.5 C 197.939,71.3603 199.605,73.027 201.5,74.5C 203.091,77.3516 204.424,80.3516 205.5,83.5C 206.093,88.719 205.093,89.3856 202.5,85.5C 201.575,86.6405 200.741,86.6405 200,85.5C 199.51,86.7932 199.343,88.1266 199.5,89.5C 197.127,87.4208 195.794,84.7541 195.5,81.5C 196.5,81.5 197.5,81.5 198.5,81.5C 198.995,76.9986 197.662,73.1653 194.5,70C 194.683,68.3164 195.35,68.1498 196.5,69.5 Z"/></g>
<g><path style="opacity:1" fill="#f27524" d="M 56.5,71.5 C 56.0181,74.8306 57.0181,77.4973 59.5,79.5C 58.8333,80.5 58.1667,81.5 57.5,82.5C 56.1667,84.1667 54.8333,85.8333 53.5,87.5C 51.9826,87.4894 50.8159,86.8228 50,85.5C 48.5944,86.6682 47.4277,86.3348 46.5,84.5C 45.8165,84.8627 45.1499,85.1961 44.5,85.5C 46.6929,79.3055 50.6929,74.6388 56.5,71.5 Z"/></g>
<g><path style="opacity:1" fill="#e47844" d="M 201.5,72.5 C 206.763,79.1088 210.763,86.4422 213.5,94.5C 212.075,92.9689 211.409,93.3023 211.5,95.5C 210.453,91.0286 208.453,87.0286 205.5,83.5C 204.424,80.3516 203.091,77.3516 201.5,74.5C 201.5,73.8333 201.5,73.1667 201.5,72.5 Z"/></g>
<g><path style="opacity:0.682" fill="#d77440" d="M 57.5,68.5 C 56.8902,69.391 56.5569,70.391 56.5,71.5C 50.6929,74.6388 46.6929,79.3055 44.5,85.5C 43.2632,86.9649 42.2632,88.6316 41.5,90.5C 40.9035,89.0646 40.9035,87.398 41.5,85.5C 43.8545,80.1205 47.1879,75.4538 51.5,71.5C 51.369,72.2389 51.5357,72.9056 52,73.5C 53.7498,71.576 55.5831,69.9093 57.5,68.5 Z"/></g>
<g><path style="opacity:1" fill="#db6243" d="M 113.5,67.5 C 89.8622,71.6467 70.5289,82.98 55.5,101.5C 54.8333,101.5 54.5,101.167 54.5,100.5C 55.8333,98.5 57.1667,96.5 58.5,94.5C 62.1667,91.1667 65.8333,87.8333 69.5,84.5C 80.0791,75.9084 92.0791,70.0751 105.5,67C 108.367,66.1993 111.034,66.3659 113.5,67.5 Z"/></g>
<g><path style="opacity:1" fill="#e2533d" d="M 161.5,51.5 C 162.167,51.5 162.833,51.5 163.5,51.5C 167.402,53.8926 170.902,56.8926 174,60.5C 177.522,65.5665 181.022,70.5665 184.5,75.5C 188.337,83.3489 191.004,91.6823 192.5,100.5C 191.833,101.833 191.167,103.167 190.5,104.5C 187.851,82.8603 178.185,65.1936 161.5,51.5 Z"/></g>
<g><path style="opacity:1" fill="#ee4f24" d="M 161.5,42.5 C 175.786,48.1207 187.452,57.1207 196.5,69.5C 195.35,68.1498 194.683,68.3164 194.5,70C 197.662,73.1653 198.995,76.9986 198.5,81.5C 197.5,81.5 196.5,81.5 195.5,81.5C 195.794,84.7541 197.127,87.4208 199.5,89.5C 199.833,90.8333 200.167,92.1667 200.5,93.5C 201.709,99.1285 202.709,104.795 203.5,110.5C 202.325,110.281 201.325,110.614 200.5,111.5C 199.652,113.409 199.318,115.409 199.5,117.5C 198.542,117.047 197.708,116.381 197,115.5C 196.226,121.391 195.059,127.057 193.5,132.5C 195.067,121.751 194.734,111.084 192.5,100.5C 191.004,91.6823 188.337,83.3489 184.5,75.5C 187.512,76.9948 189.845,76.1615 191.5,73C 190.761,69.9265 188.928,67.7598 186,66.5C 183.419,62.5499 180.586,58.7166 177.5,55C 171.937,50.9151 166.604,46.7484 161.5,42.5 Z"/></g>
<g><path style="opacity:1" fill="#f37624" d="M 205.5,83.5 C 208.453,87.0286 210.453,91.0286 211.5,95.5C 211.5,95.8333 211.5,96.1667 211.5,96.5C 211.378,100.838 211.045,101.172 210.5,97.5C 208.123,97.2155 205.956,97.2155 204,97.5C 203.667,96.8333 203.333,96.1667 203,95.5C 202.601,95.7284 202.435,96.0618 202.5,96.5C 201.833,95.5 201.167,94.5 200.5,93.5C 200.167,92.1667 199.833,90.8333 199.5,89.5C 199.343,88.1266 199.51,86.7932 200,85.5C 200.741,86.6405 201.575,86.6405 202.5,85.5C 205.093,89.3856 206.093,88.719 205.5,83.5 Z"/></g>
<g><path style="opacity:1" fill="#f16326" d="M 53.5,87.5 C 52.5974,89.6365 51.4307,91.6365 50,93.5C 48.4506,90.9974 46.7839,90.9974 45,93.5C 42.9038,98.7068 40.0705,103.374 36.5,107.5C 36.9926,105.194 37.3259,102.861 37.5,100.5C 38.273,97.0205 39.6063,93.6871 41.5,90.5C 42.2632,88.6316 43.2632,86.9649 44.5,85.5C 45.1499,85.1961 45.8165,84.8627 46.5,84.5C 47.4277,86.3348 48.5944,86.6682 50,85.5C 50.8159,86.8228 51.9826,87.4894 53.5,87.5 Z"/></g>
<g><path style="opacity:1" fill="#eb4423" d="M 58.5,94.5 C 57.1667,96.5 55.8333,98.5 54.5,100.5C 49.0771,107 44.9104,114.334 42,122.5C 39.5452,135.232 37.7118,147.899 36.5,160.5C 36.6716,159.508 36.3382,158.842 35.5,158.5C 35.2962,155.482 34.9629,152.482 34.5,149.5C 33.6175,135.232 35.1175,121.232 39,107.5C 42.0133,104.143 44.6799,100.476 47,96.5C 48.813,97.6091 49.6463,96.9424 49.5,94.5C 50.552,94.6495 51.552,94.4828 52.5,94C 53.3462,91.8204 54.8462,90.3204 57,89.5C 59.7905,90.4243 60.2905,92.091 58.5,94.5 Z"/></g>
<g><path style="opacity:1" fill="#d98e49" d="M 213.5,94.5 C 216.266,101.9 217.933,109.567 218.5,117.5C 217.833,119.167 217.167,120.833 216.5,122.5C 216.795,120.265 216.461,118.265 215.5,116.5C 215.81,113.287 215.477,110.287 214.5,107.5C 214.258,103.521 213.258,99.8544 211.5,96.5C 211.5,96.1667 211.5,95.8333 211.5,95.5C 211.409,93.3023 212.075,92.9689 213.5,94.5 Z"/></g>
<g><path style="opacity:1" fill="#e76018" d="M 200.5,93.5 C 201.167,94.5 201.833,95.5 202.5,96.5C 205.118,103.969 206.618,111.636 207,119.5C 206.288,117.153 205.121,115.153 203.5,113.5C 202.274,117.749 201.607,122.083 201.5,126.5C 201.5,128.167 201.5,129.833 201.5,131.5C 200.366,134.37 199.7,137.37 199.5,140.5C 199.737,141.791 199.404,142.791 198.5,143.5C 199.083,134.845 199.416,126.178 199.5,117.5C 199.318,115.409 199.652,113.409 200.5,111.5C 201.325,110.614 202.325,110.281 203.5,110.5C 202.709,104.795 201.709,99.1285 200.5,93.5 Z"/></g>
<g><path style="opacity:1" fill="#e45d31" d="M 37.5,100.5 C 37.3259,102.861 36.9926,105.194 36.5,107.5C 35.4422,112.843 34.2755,118.176 33,123.5C 32.5004,130.492 32.3337,137.492 32.5,144.5C 30.2196,129.408 31.8863,114.741 37.5,100.5 Z"/></g>
<g><path style="opacity:1" fill="#ce5f3e" d="M 41.5,85.5 C 40.9035,87.398 40.9035,89.0646 41.5,90.5C 39.6063,93.6871 38.273,97.0205 37.5,100.5C 31.8863,114.741 30.2196,129.408 32.5,144.5C 32.7959,146.403 33.4625,148.07 34.5,149.5C 34.9629,152.482 35.2962,155.482 35.5,158.5C 34.8333,158.5 34.1667,158.5 33.5,158.5C 27.6046,137.383 28.4379,116.383 36,95.5C 37.6076,91.9439 39.4409,88.6106 41.5,85.5 Z"/></g>
<g><path style="opacity:1" fill="#f69421" d="M 214.5,107.5 C 215.477,110.287 215.81,113.287 215.5,116.5C 213.755,120.071 212.422,123.738 211.5,127.5C 209.61,127.703 208.11,127.037 207,125.5C 204.926,127.342 203.093,129.342 201.5,131.5C 201.5,129.833 201.5,128.167 201.5,126.5C 202.302,125.048 202.802,123.382 203,121.5C 204.333,120.167 205.667,120.167 207,121.5C 208.188,120.437 208.688,119.103 208.5,117.5C 209.822,117.67 210.989,117.337 212,116.5C 212.841,113.372 213.675,110.372 214.5,107.5 Z"/></g>
<g><path style="opacity:1" fill="#f68825" d="M 211.5,96.5 C 213.258,99.8544 214.258,103.521 214.5,107.5C 213.675,110.372 212.841,113.372 212,116.5C 210.989,117.337 209.822,117.67 208.5,117.5C 208.688,119.103 208.188,120.437 207,121.5C 205.667,120.167 204.333,120.167 203,121.5C 202.802,123.382 202.302,125.048 201.5,126.5C 201.607,122.083 202.274,117.749 203.5,113.5C 205.121,115.153 206.288,117.153 207,119.5C 206.618,111.636 205.118,103.969 202.5,96.5C 202.435,96.0618 202.601,95.7284 203,95.5C 203.333,96.1667 203.667,96.8333 204,97.5C 205.956,97.2155 208.123,97.2155 210.5,97.5C 211.045,101.172 211.378,100.838 211.5,96.5 Z"/></g>
<g><path style="opacity:0.478" fill="#e4513f" d="M 54.5,100.5 C 54.5,101.167 54.8333,101.5 55.5,101.5C 42.2286,121.18 37.2286,142.847 40.5,166.5C 37.7079,165.608 36.3746,163.608 36.5,160.5C 37.7118,147.899 39.5452,135.232 42,122.5C 44.9104,114.334 49.0771,107 54.5,100.5 Z"/></g>
<g><path style="opacity:0.127" fill="#f0c153" d="M 218.5,117.5 C 218.5,124.5 218.5,131.5 218.5,138.5C 220.833,138.5 223.167,138.5 225.5,138.5C 225.167,139.167 224.833,139.833 224.5,140.5C 223.209,140.263 222.209,140.596 221.5,141.5C 220.167,141.5 218.833,141.5 217.5,141.5C 216.617,136.897 216.283,132.23 216.5,127.5C 216.5,125.833 216.5,124.167 216.5,122.5C 217.167,120.833 217.833,119.167 218.5,117.5 Z"/></g>
<g><path style="opacity:1" fill="#f8a923" d="M 215.5,116.5 C 216.461,118.265 216.795,120.265 216.5,122.5C 216.5,124.167 216.5,125.833 216.5,127.5C 214.494,131.325 213.161,135.492 212.5,140C 212.833,140.833 213.167,141.667 213.5,142.5C 214.736,141.754 216.07,141.421 217.5,141.5C 215.174,143.33 212.507,144.663 209.5,145.5C 208.833,143.833 208.167,142.167 207.5,140.5C 206.818,141.243 206.151,141.909 205.5,142.5C 207.011,129.996 205.011,129.33 199.5,140.5C 199.7,137.37 200.366,134.37 201.5,131.5C 203.093,129.342 204.926,127.342 207,125.5C 208.11,127.037 209.61,127.703 211.5,127.5C 212.422,123.738 213.755,120.071 215.5,116.5 Z"/></g>
<g><path style="opacity:0.651" fill="#e6a16f" d="M 225.5,138.5 C 228.4,138.28 231.067,138.946 233.5,140.5C 233.376,141.107 233.043,141.44 232.5,141.5C 229.873,140.908 227.206,140.575 224.5,140.5C 224.833,139.833 225.167,139.167 225.5,138.5 Z"/></g>
<g><path style="opacity:1" fill="#fbcd30" d="M 216.5,127.5 C 216.283,132.23 216.617,136.897 217.5,141.5C 216.07,141.421 214.736,141.754 213.5,142.5C 213.167,141.667 212.833,140.833 212.5,140C 213.161,135.492 214.494,131.325 216.5,127.5 Z"/></g>
<g><path style="opacity:1" fill="#fcb72d" d="M 205.5,142.5 C 203.432,146.554 200.765,150.221 197.5,153.5C 196.767,155.495 196.1,155.661 195.5,154C 196.426,150.459 197.426,146.959 198.5,143.5C 199.404,142.791 199.737,141.791 199.5,140.5C 205.011,129.33 207.011,129.996 205.5,142.5 Z"/></g>
<g><path style="opacity:1" fill="#e57514" d="M 217.5,141.5 C 218.833,141.5 220.167,141.5 221.5,141.5C 216.807,144.987 211.473,146.82 205.5,147C 203.438,148.532 202.104,150.532 201.5,153C 200.207,153.49 198.873,153.657 197.5,153.5C 200.765,150.221 203.432,146.554 205.5,142.5C 206.151,141.909 206.818,141.243 207.5,140.5C 208.167,142.167 208.833,143.833 209.5,145.5C 212.507,144.663 215.174,143.33 217.5,141.5 Z"/></g>
<g><path style="opacity:0.733" fill="#ca5f3c" d="M 221.5,141.5 C 222.209,140.596 223.209,140.263 224.5,140.5C 227.206,140.575 229.873,140.908 232.5,141.5C 228.905,144.649 225.238,147.816 221.5,151C 225.281,151.367 225.948,152.7 223.5,155C 220.595,156.286 217.595,157.286 214.5,158C 213.072,160.185 211.405,162.185 209.5,164C 200.736,167.425 193.736,173.092 188.5,181C 185.118,181.824 181.784,181.657 178.5,180.5C 177.341,177.519 176.341,174.519 175.5,171.5C 176.163,169.958 176.83,168.291 177.5,166.5C 177.407,168.11 177.74,169.776 178.5,171.5C 179.167,174.167 179.833,176.833 180.5,179.5C 182.857,179.663 185.19,179.497 187.5,179C 192.595,171.579 199.261,165.912 207.5,162C 208.893,160.829 209.727,159.329 210,157.5C 213.716,153.282 217.883,149.615 222.5,146.5C 227.979,143.283 227.646,141.616 221.5,141.5 Z"/></g>
<g><path style="opacity:1" fill="#ed5a25" d="M 199.5,117.5 C 199.416,126.178 199.083,134.845 198.5,143.5C 195.262,147.041 193.928,151.374 194.5,156.5C 195.833,156.5 197.167,156.5 198.5,156.5C 197.426,160.134 195.759,163.467 193.5,166.5C 193.833,166.833 194.167,167.167 194.5,167.5C 196.772,165.349 199.439,163.849 202.5,163C 202.043,162.586 201.709,162.086 201.5,161.5C 203.966,157.696 207.299,155.029 211.5,153.5C 213.329,151.844 214.663,149.844 215.5,147.5C 217.692,145.545 220.025,145.212 222.5,146.5C 217.883,149.615 213.716,153.282 210,157.5C 209.727,159.329 208.893,160.829 207.5,162C 199.261,165.912 192.595,171.579 187.5,179C 185.19,179.497 182.857,179.663 180.5,179.5C 179.833,176.833 179.167,174.167 178.5,171.5C 183.113,161.416 187.28,151.082 191,140.5C 191.333,138.167 191.667,135.833 192,133.5C 192.383,132.944 192.883,132.611 193.5,132.5C 195.059,127.057 196.226,121.391 197,115.5C 197.708,116.381 198.542,117.047 199.5,117.5 Z"/></g>
<g><path style="opacity:1" fill="#f06622" d="M 221.5,141.5 C 227.646,141.616 227.979,143.283 222.5,146.5C 220.025,145.212 217.692,145.545 215.5,147.5C 214.663,149.844 213.329,151.844 211.5,153.5C 207.299,155.029 203.966,157.696 201.5,161.5C 201.709,162.086 202.043,162.586 202.5,163C 199.439,163.849 196.772,165.349 194.5,167.5C 194.167,167.167 193.833,166.833 193.5,166.5C 195.759,163.467 197.426,160.134 198.5,156.5C 197.167,156.5 195.833,156.5 194.5,156.5C 193.928,151.374 195.262,147.041 198.5,143.5C 197.426,146.959 196.426,150.459 195.5,154C 196.1,155.661 196.767,155.495 197.5,153.5C 198.873,153.657 200.207,153.49 201.5,153C 202.104,150.532 203.438,148.532 205.5,147C 211.473,146.82 216.807,144.987 221.5,141.5 Z"/></g>
<g><path style="opacity:0.373" fill="#e86840" d="M 192.5,100.5 C 194.734,111.084 195.067,121.751 193.5,132.5C 192.883,132.611 192.383,132.944 192,133.5C 191.667,135.833 191.333,138.167 191,140.5C 187.28,151.082 183.113,161.416 178.5,171.5C 177.74,169.776 177.407,168.11 177.5,166.5C 176.83,168.291 176.163,169.958 175.5,171.5C 175.338,169.473 175.505,167.473 176,165.5C 188.538,146.97 193.372,126.637 190.5,104.5C 191.167,103.167 191.833,101.833 192.5,100.5 Z"/></g>
<g><path style="opacity:1" fill="#bd5046" d="M 33.5,158.5 C 34.1667,158.5 34.8333,158.5 35.5,158.5C 36.3382,158.842 36.6716,159.508 36.5,160.5C 36.3746,163.608 37.7079,165.608 40.5,166.5C 41.2679,168.715 41.9346,171.048 42.5,173.5C 41.5,174.833 40.5,174.833 39.5,173.5C 36.3523,169.077 34.3523,164.077 33.5,158.5 Z"/></g>
<g><path style="opacity:1" fill="#ee5d25" d="M 55.5,152.5 C 59.0736,152.691 62.4069,153.691 65.5,155.5C 70.7499,164.41 76.7499,172.743 83.5,180.5C 81.6579,178.966 80.3246,179.3 79.5,181.5C 80.9524,182.94 81.9524,184.606 82.5,186.5C 78.7131,185.214 76.0465,182.714 74.5,179C 73.2068,178.51 71.8734,178.343 70.5,178.5C 70.2504,177.078 69.417,176.078 68,175.5C 66.2056,178.759 64.7056,182.093 63.5,185.5C 64.372,187.607 64.372,189.607 63.5,191.5C 63.8678,192.91 64.7011,193.91 66,194.5C 66.499,198.821 66.6657,203.154 66.5,207.5C 66.539,210.089 65.539,212.089 63.5,213.5C 63.5,212.833 63.5,212.167 63.5,211.5C 62.8165,203.532 60.9831,195.865 58,188.5C 57.6667,182.833 57.3333,177.167 57,171.5C 55.268,167.07 53.768,162.57 52.5,158C 52.6132,155.601 53.6132,153.768 55.5,152.5 Z"/></g>
<g><path style="opacity:0.129" fill="#f17452" d="M 39.5,173.5 C 40.5,174.833 41.5,174.833 42.5,173.5C 43.2266,181.284 42.2266,181.284 39.5,173.5 Z"/></g>
<g><path style="opacity:1" fill="#914b4b" d="M 207.5,183.5 C 204.167,184.833 203.167,183.833 204.5,180.5C 206.022,177.235 208.355,175.902 211.5,176.5C 210.139,178.85 208.806,181.184 207.5,183.5 Z"/></g>
<g><path style="opacity:1" fill="#ec6b1d" d="M 70.5,178.5 C 69.8761,178.917 69.5427,179.584 69.5,180.5C 71.9099,184.465 73.2432,188.799 73.5,193.5C 72.1667,193.5 70.8333,193.5 69.5,193.5C 69.3129,197.913 68.6462,202.246 67.5,206.5C 67.5,207.167 67.1667,207.5 66.5,207.5C 66.6657,203.154 66.499,198.821 66,194.5C 64.7011,193.91 63.8678,192.91 63.5,191.5C 64.372,189.607 64.372,187.607 63.5,185.5C 64.7056,182.093 66.2056,178.759 68,175.5C 69.417,176.078 70.2504,177.078 70.5,178.5 Z"/></g>
<g><path style="opacity:0.141" fill="#ee6b46" d="M 53.5,150.5 C 58.2824,149.451 62.9491,150.285 67.5,153C 85.6047,188.605 114.605,205.438 154.5,203.5C 151.742,204.818 148.576,205.485 145,205.5C 139.818,205.289 134.652,204.955 129.5,204.5C 128.167,204.5 126.833,204.5 125.5,204.5C 109.403,200.12 95.4034,192.12 83.5,180.5C 76.7499,172.743 70.7499,164.41 65.5,155.5C 62.4069,153.691 59.0736,152.691 55.5,152.5C 56.2625,151.732 57.2625,151.232 58.5,151C 56.8659,150.506 55.1992,150.34 53.5,150.5 Z"/></g>
<g><path style="opacity:1" fill="#af453c" d="M 204.5,180.5 C 203.167,183.833 204.167,184.833 207.5,183.5C 202.203,190.464 196.203,196.798 189.5,202.5C 190.203,200.127 191.536,198.127 193.5,196.5C 195.317,194.182 197.317,192.016 199.5,190C 199.723,188.388 199.723,186.888 199.5,185.5C 200.833,183.5 202.5,181.833 204.5,180.5 Z"/></g>
<g><path style="opacity:1" fill="#ed5324" d="M 83.5,180.5 C 95.4034,192.12 109.403,200.12 125.5,204.5C 126.263,205.268 127.263,205.768 128.5,206C 127.062,206.219 125.729,206.719 124.5,207.5C 126.162,208.327 127.495,209.493 128.5,211C 131.226,211.182 133.893,211.682 136.5,212.5C 136.291,213.086 135.957,213.586 135.5,214C 136.872,214.402 138.205,214.902 139.5,215.5C 143.429,214.567 147.429,214.234 151.5,214.5C 150.391,215.29 149.058,215.79 147.5,216C 142.833,216.667 138.167,216.667 133.5,216C 132.833,215 132.167,214 131.5,213C 122.453,211.246 113.453,209.413 104.5,207.5C 104.643,205.738 104.309,204.071 103.5,202.5C 96.4264,197.071 89.4264,191.738 82.5,186.5C 81.9524,184.606 80.9524,182.94 79.5,181.5C 80.3246,179.3 81.6579,178.966 83.5,180.5 Z"/></g>
<g><path style="opacity:1" fill="#f8b025" d="M 70.5,178.5 C 74.5,183.167 78.8333,187.5 83.5,191.5C 84.0303,194.031 85.3637,196.031 87.5,197.5C 86.152,200.013 84.152,201.847 81.5,203C 82.5736,206.159 84.5736,208.493 87.5,210C 86.944,210.383 86.6107,210.883 86.5,211.5C 84.9731,211.573 83.9731,210.906 83.5,209.5C 80.3313,204.666 75.9979,201.333 70.5,199.5C 70.634,201.292 70.3007,202.958 69.5,204.5C 69.1667,205.5 68.5,206.167 67.5,206.5C 68.6462,202.246 69.3129,197.913 69.5,193.5C 70.8333,193.5 72.1667,193.5 73.5,193.5C 73.2432,188.799 71.9099,184.465 69.5,180.5C 69.5427,179.584 69.8761,178.917 70.5,178.5 Z"/></g>
<g><path style="opacity:1" fill="#c65c3a" d="M 53.5,150.5 C 55.1992,150.34 56.8659,150.506 58.5,151C 57.2625,151.232 56.2625,151.732 55.5,152.5C 53.6132,153.768 52.6132,155.601 52.5,158C 53.768,162.57 55.268,167.07 57,171.5C 57.3333,177.167 57.6667,182.833 58,188.5C 60.9831,195.865 62.8165,203.532 63.5,211.5C 62.8333,212.5 62.1667,213.5 61.5,214.5C 61.8757,209.727 60.8757,205.393 58.5,201.5C 58.2413,198.728 57.2413,196.395 55.5,194.5C 55.6416,190.85 54.9749,187.35 53.5,184C 55.0222,174.935 53.6888,166.269 49.5,158C 50.4731,155.216 51.8064,152.716 53.5,150.5 Z"/></g>
<g><path style="opacity:0.612" fill="#d07a5e" d="M 55.5,194.5 C 57.2413,196.395 58.2413,198.728 58.5,201.5C 58.1714,204.032 57.0048,205.032 55,204.5C 54.6124,201.151 54.7791,197.817 55.5,194.5 Z"/></g>
<g><path style="opacity:1" fill="#f89621" d="M 83.5,191.5 C 86.9895,194.411 90.6562,197.078 94.5,199.5C 94.7118,201.384 95.7118,202.717 97.5,203.5C 95.5,204.167 93.5,204.833 91.5,205.5C 92.8333,206.5 92.8333,207.5 91.5,208.5C 93.5482,211.215 95.8816,213.548 98.5,215.5C 95.381,213.949 92.0476,212.949 88.5,212.5C 88.1583,211.662 87.4916,211.328 86.5,211.5C 86.6107,210.883 86.944,210.383 87.5,210C 84.5736,208.493 82.5736,206.159 81.5,203C 84.152,201.847 86.152,200.013 87.5,197.5C 85.3637,196.031 84.0303,194.031 83.5,191.5 Z"/></g>
<g><path style="opacity:1" fill="#d24839" d="M 199.5,185.5 C 199.723,186.888 199.723,188.388 199.5,190C 197.317,192.016 195.317,194.182 193.5,196.5C 193.167,196.5 192.833,196.5 192.5,196.5C 191.796,194.656 190.463,194.156 188.5,195C 178.107,200.962 167.107,204.796 155.5,206.5C 147.826,206.666 140.159,206.5 132.5,206C 131.263,205.768 130.263,205.268 129.5,204.5C 134.652,204.955 139.818,205.289 145,205.5C 148.576,205.485 151.742,204.818 154.5,203.5C 171.314,201.79 186.314,195.79 199.5,185.5 Z"/></g>
<g><path style="opacity:1" fill="#f9c737" d="M 83.5,209.5 C 79.7274,207.779 76.0608,205.779 72.5,203.5C 71.537,203.97 71.537,204.637 72.5,205.5C 71.8333,205.833 71.1667,206.167 70.5,206.5C 70.6716,205.508 70.3382,204.842 69.5,204.5C 70.3007,202.958 70.634,201.292 70.5,199.5C 75.9979,201.333 80.3313,204.666 83.5,209.5 Z"/></g>
<g><path style="opacity:1" fill="#ea3c23" d="M 192.5,196.5 C 191.128,197.512 189.795,198.512 188.5,199.5C 184.738,201.413 181.071,203.579 177.5,206C 172.726,208.384 167.726,210.218 162.5,211.5C 158.15,211.23 153.983,211.897 150,213.5C 149.212,211.835 148.878,210.169 149,208.5C 151.277,207.883 153.444,207.216 155.5,206.5C 167.107,204.796 178.107,200.962 188.5,195C 190.463,194.156 191.796,194.656 192.5,196.5 Z"/></g>
<g><path style="opacity:1" fill="#ed4724" d="M 125.5,204.5 C 126.833,204.5 128.167,204.5 129.5,204.5C 130.263,205.268 131.263,205.768 132.5,206C 140.159,206.5 147.826,206.666 155.5,206.5C 153.444,207.216 151.277,207.883 149,208.5C 148.878,210.169 149.212,211.835 150,213.5C 153.983,211.897 158.15,211.23 162.5,211.5C 161.5,212.167 160.5,212.833 159.5,213.5C 156.763,213.401 154.096,213.735 151.5,214.5C 147.429,214.234 143.429,214.567 139.5,215.5C 138.205,214.902 136.872,214.402 135.5,214C 135.957,213.586 136.291,213.086 136.5,212.5C 133.893,211.682 131.226,211.182 128.5,211C 127.495,209.493 126.162,208.327 124.5,207.5C 125.729,206.719 127.062,206.219 128.5,206C 127.263,205.768 126.263,205.268 125.5,204.5 Z"/></g>
<g><path style="opacity:0.718" fill="#f6b165" d="M 69.5,204.5 C 70.3382,204.842 70.6716,205.508 70.5,206.5C 69.6006,209.395 68.2672,212.062 66.5,214.5C 65.209,214.737 64.209,214.404 63.5,213.5C 65.539,212.089 66.539,210.089 66.5,207.5C 67.1667,207.5 67.5,207.167 67.5,206.5C 68.5,206.167 69.1667,205.5 69.5,204.5 Z"/></g>
<g><path style="opacity:0.624" fill="#e4b74e" d="M 83.5,209.5 C 83.9731,210.906 84.9731,211.573 86.5,211.5C 87.4916,211.328 88.1583,211.662 88.5,212.5C 87.391,212.557 86.391,212.89 85.5,213.5C 81.0274,211.095 76.694,208.429 72.5,205.5C 71.537,204.637 71.537,203.97 72.5,203.5C 76.0608,205.779 79.7274,207.779 83.5,209.5 Z"/></g>
<g><path style="opacity:1" fill="#ec582e" d="M 188.5,199.5 C 176.457,211.847 161.791,218.847 144.5,220.5C 143.167,220.5 141.833,220.5 140.5,220.5C 147.039,218.904 153.706,217.404 160.5,216C 164.554,214.059 164.22,213.225 159.5,213.5C 160.5,212.833 161.5,212.167 162.5,211.5C 167.726,210.218 172.726,208.384 177.5,206C 181.071,203.579 184.738,201.413 188.5,199.5 Z"/></g>
<g><path style="opacity:1" fill="#f58722" d="M 94.5,199.5 C 96.8051,200.989 99.1384,202.489 101.5,204C 99.6079,204.973 97.6079,205.64 95.5,206C 101.323,208.455 107.323,210.288 113.5,211.5C 114.806,214.247 113.806,215.913 110.5,216.5C 109.833,216.167 109.167,215.833 108.5,215.5C 107.859,216.993 106.859,217.993 105.5,218.5C 102.654,218.448 100.32,217.448 98.5,215.5C 95.8816,213.548 93.5482,211.215 91.5,208.5C 92.8333,207.5 92.8333,206.5 91.5,205.5C 93.5,204.833 95.5,204.167 97.5,203.5C 95.7118,202.717 94.7118,201.384 94.5,199.5 Z"/></g>
<g><path style="opacity:1" fill="#df943f" d="M 88.5,212.5 C 92.0476,212.949 95.381,213.949 98.5,215.5C 100.32,217.448 102.654,218.448 105.5,218.5C 105.5,218.833 105.5,219.167 105.5,219.5C 102.687,219.452 100.021,218.785 97.5,217.5C 96.8933,217.624 96.56,217.957 96.5,218.5C 92.5919,217.231 88.9252,215.565 85.5,213.5C 86.391,212.89 87.391,212.557 88.5,212.5 Z"/></g>
<g><path style="opacity:0.129" fill="#c48567" d="M 63.5,211.5 C 63.5,212.167 63.5,212.833 63.5,213.5C 64.209,214.404 65.209,214.737 66.5,214.5C 64.0871,219.392 62.4205,219.392 61.5,214.5C 62.1667,213.5 62.8333,212.5 63.5,211.5 Z"/></g>
<g><path style="opacity:1" fill="#f37723" d="M 113.5,211.5 C 114.167,211.5 114.833,211.5 115.5,211.5C 118.854,213.258 122.521,214.258 126.5,214.5C 126.703,216.39 126.037,217.89 124.5,219C 119.599,220.325 114.599,220.825 109.5,220.5C 108.432,219.566 107.099,219.232 105.5,219.5C 105.5,219.167 105.5,218.833 105.5,218.5C 106.859,217.993 107.859,216.993 108.5,215.5C 109.167,215.833 109.833,216.167 110.5,216.5C 113.806,215.913 114.806,214.247 113.5,211.5 Z"/></g>
<g><path style="opacity:1" fill="#ec6e2b" d="M 115.5,211.5 C 119.5,212.167 123.5,212.833 127.5,213.5C 128.199,215.995 129.199,218.328 130.5,220.5C 133.833,220.5 137.167,220.5 140.5,220.5C 141.833,220.5 143.167,220.5 144.5,220.5C 138.74,222 132.74,222.667 126.5,222.5C 120.583,222.695 114.916,222.029 109.5,220.5C 114.599,220.825 119.599,220.325 124.5,219C 126.037,217.89 126.703,216.39 126.5,214.5C 122.521,214.258 118.854,213.258 115.5,211.5 Z"/></g>
<g><path style="opacity:1" fill="#ee6021" d="M 70.5,178.5 C 71.8734,178.343 73.2068,178.51 74.5,179C 76.0465,182.714 78.7131,185.214 82.5,186.5C 89.4264,191.738 96.4264,197.071 103.5,202.5C 104.309,204.071 104.643,205.738 104.5,207.5C 113.453,209.413 122.453,211.246 131.5,213C 132.167,214 132.833,215 133.5,216C 138.167,216.667 142.833,216.667 147.5,216C 149.058,215.79 150.391,215.29 151.5,214.5C 154.096,213.735 156.763,213.401 159.5,213.5C 164.22,213.225 164.554,214.059 160.5,216C 153.706,217.404 147.039,218.904 140.5,220.5C 137.167,220.5 133.833,220.5 130.5,220.5C 129.199,218.328 128.199,215.995 127.5,213.5C 123.5,212.833 119.5,212.167 115.5,211.5C 114.833,211.5 114.167,211.5 113.5,211.5C 107.323,210.288 101.323,208.455 95.5,206C 97.6079,205.64 99.6079,204.973 101.5,204C 99.1384,202.489 96.8051,200.989 94.5,199.5C 90.6562,197.078 86.9895,194.411 83.5,191.5C 78.8333,187.5 74.5,183.167 70.5,178.5 Z"/></g>
<g><path style="opacity:0.165" fill="#c3623c" d="M 192.5,196.5 C 192.833,196.5 193.167,196.5 193.5,196.5C 191.536,198.127 190.203,200.127 189.5,202.5C 161.415,224.75 130.415,230.084 96.5,218.5C 96.56,217.957 96.8933,217.624 97.5,217.5C 100.021,218.785 102.687,219.452 105.5,219.5C 107.099,219.232 108.432,219.566 109.5,220.5C 114.916,222.029 120.583,222.695 126.5,222.5C 132.74,222.667 138.74,222 144.5,220.5C 161.791,218.847 176.457,211.847 188.5,199.5C 189.795,198.512 191.128,197.512 192.5,196.5 Z"/></g>
</svg>
